<svg xmlns="http://www.w3.org/2000/svg" width="776.2021" height="140.9885" viewBox="0 0 776.2021 140.9885">
  <title>roboto light with green icon</title>
  <g id="Layer_2" data-name="Layer 2">
    <g id="Layer_1-2" data-name="Layer 1">
      <g id="Layer_2-2" data-name="Layer 2">
        <g id="draw_me" data-name="draw me">
          <text transform="translate(0.0001 113.0491)" style="isolation: isolate;font-size: 103.09739685058594px;fill: #fff;font-family: Roboto-Light, Roboto">D<tspan x="67.5068" y="0" style="letter-spacing: -0.019531743152723022em">r</tspan><tspan x="100.1777" y="0">aw Me</tspan></text>
          <g id="SvgjsG1010">
            <g>
              <path d="M525.182,87.948,510.5246,40.202a22.3587,22.3587,0,0,0-5.4361-8.8454l1.4561.1295,4.6412,3.2227,1.3058-14.8133a3.3109,3.3109,0,0,0,1.9434-2.3429c.8158-2.4153.2464-7.4059-.174-10.2068a1.407,1.407,0,0,0,1.13-.7309l1.479-2.8288a1.428,1.428,0,0,0-.6028-1.9225l-2.98-1.5578a1.428,1.428,0,0,0-1.9225.6028l-.05.0974a1.5321,1.5321,0,0,0-1.2668.9007,8.0627,8.0627,0,0,0-.3118,2.354c-.0014.0167-.0014.032-.0028.0487l-.0014.0181a1.186,1.186,0,0,0,.284.9118,1.5329,1.5329,0,0,0,.1183.1336l.01.0084a1.4152,1.4152,0,0,0,.3452.2812l.5012.2617c-1.1485,2.0756-3.8658,7.2626-3.554,9.3632A4.971,4.971,0,0,0,508.45,17.48l-7.0885,11.0978a8.3125,8.3125,0,0,0-1.1861-.4928,19.0951,19.0951,0,0,0-2.6756-.5916c1.7916-1.1972,2.425-3.27,2.425-5.6324,0-3.7085-4.4241-7.65-6.7141-7.65-2.17,0-6.7141,3.941-6.7141,7.65,0,2.2928.6125,4.3141,2.2872,5.5252a19.8861,19.8861,0,0,0-3.277.6849,8.38,8.38,0,0,0-1.0747.4371l-7.1359-11.173a4.971,4.971,0,0,0,1.0148-2.1925c.3132-2.1007-2.4055-7.2876-3.554-9.3632l.5012-.2617a1.3585,1.3585,0,0,0,.3452-.2812l.01-.0084a1.3348,1.3348,0,0,0,.1183-.1336,1.1816,1.1816,0,0,0,.2826-.9118l-.0014-.0167c-.0014-.0167-.0014-.0334-.0028-.05a8.01,8.01,0,0,0-.3118-2.354,1.5283,1.5283,0,0,0-1.2668-.9007l-.05-.0974A1.4284,1.4284,0,0,0,472.459.161l-2.9777,1.5564a1.4284,1.4284,0,0,0-.6028,1.9225l1.4784,2.8287a1.4018,1.4018,0,0,0,1.13.7309c-.419,2.8009-.99,7.7916-.174,10.2068a3.3048,3.3048,0,0,0,1.9434,2.3429l1.3058,14.8133,4.6412-3.2227,1.523-.1364a22.339,22.339,0,0,0-5.5628,8.9679L460.4969,87.948c-1.6566,5.3944,1.3837,8.3929,6.7544,6.6626l6.6556-2.1438v25.5046c0,.9494.7768,10.9335,1.7262,10.9335s1.7262-9.9841,1.7262-10.9335V91.3545l4.3211-1.3921L486.15,99.7a5.5761,5.5761,0,0,0-.9967,2.535,9.9325,9.9325,0,0,1,2.1341,3.8c.9494,3.4065,1.2654,8.2482,2.2663,10.598.3007.7044,1.2223,1.7151,1.9489,1.7151.8492-.2018,1.7081-1.0663,1.7081-1.7262,0,.66.8589,1.5243,1.7081,1.7262.7253,0,1.6482-1.0093,1.9489-1.7151,1.0009-2.35,1.3155-7.193,2.2663-10.598a9.9531,9.9531,0,0,1,2.1341-3.8,5.5761,5.5761,0,0,0-.9967-2.535l4.438-9.67,4.3141,1.42v26.5208c0,.9494.7768,10.9335,1.7262,10.9335s1.7262-9.9841,1.7262-10.9335V92.5865l5.9693,1.9643C523.8066,96.3131,526.8372,93.3424,525.182,87.948Z" style="fill: #31d677"/>
              <path d="M518.8076,110.65a1.7313,1.7313,0,0,0-1.7262,1.7262v15.7293c0,.9494.7768,10.9335,1.7262,10.9335s1.7262-9.9841,1.7262-10.9335V112.3779A1.7316,1.7316,0,0,0,518.8076,110.65Z" style="fill: #31d677"/>
              <path d="M466.96,110.65h0a1.7313,1.7313,0,0,0-1.7262,1.7262v15.7293c0,.9494.7768,10.9335,1.7262,10.9335h0c.9494,0,1.7262-9.9841,1.7262-10.9335V112.3779A1.7316,1.7316,0,0,0,466.96,110.65Z" style="fill: #31d677"/>
            </g>
          </g>
        </g>
        <g id="hero">
          <text transform="translate(558.5802 113.0491)" style="isolation: isolate;font-size: 103.09739685058594px;fill: #fff;font-family: Roboto-Light, Roboto">He<tspan x="126.2036" y="0" style="letter-spacing: -0.009765871576361511em">r</tspan><tspan x="159.8813" y="0">o</tspan></text>
        </g>
      </g>
    </g>
  </g>
</svg>
